<?xml version="1.0" encoding="iso-8859-1"?>
<!-- Generator: Adobe Illustrator 19.0.0, SVG Export Plug-In . SVG Version: 6.00 Build 0)  -->
<svg version="1.1" id="Layer_1" xmlns="http://www.w3.org/2000/svg" xmlns:xlink="http://www.w3.org/1999/xlink" x="0px" y="0px"
	 viewBox="0 0 512 512" style="enable-background:new 0 0 512 512;" xml:space="preserve">
<g>
	<g>
		<path d="M378.96,116.54c-3.602-3.183-9.102-2.84-12.286,0.763c-3.181,3.604-2.84,9.104,0.764,12.286
			c36.252,32.012,57.044,78.087,57.044,126.412c0,92.956-75.624,168.579-168.579,168.579S87.323,348.956,87.323,256
			s75.626-168.579,168.58-168.579c30.851,0,61.025,8.406,87.26,24.31c4.107,2.492,9.462,1.18,11.955-2.932
			c2.492-4.111,1.179-9.463-2.932-11.955c-28.955-17.554-62.25-26.832-96.283-26.832C153.349,70.012,69.915,153.446,69.915,256
			s83.434,185.988,185.989,185.988c102.554,0,185.988-83.434,185.988-185.988C441.892,202.685,418.954,151.854,378.96,116.54z"/>
	</g>
</g>
<g>
	<g>
		<path d="M495.726,166.828C471.908,102.77,424.568,51.82,362.429,23.366C300.29-5.088,230.791-7.64,166.732,16.179
			C102.673,39.997,51.725,87.336,23.27,149.475c-45.031,98.338-23.148,214.978,54.452,290.243c3.452,3.347,8.963,3.262,12.308-0.188
			c3.347-3.45,3.264-8.962-0.188-12.308C17.523,357.079-2.869,248.374,39.099,156.723C93.841,37.176,235.634-15.547,355.182,39.194
			c119.547,54.742,172.27,196.538,117.527,316.083c-54.741,119.547-196.539,172.271-316.083,117.529
			c-15.452-7.076-30.128-15.771-43.618-25.845c-3.851-2.876-9.308-2.084-12.183,1.766c-2.876,3.852-2.086,9.307,1.766,12.183
			c14.475,10.808,30.216,20.136,46.787,27.724C183.342,504.186,219.503,512,255.775,512c30.09,0,60.255-5.378,89.301-16.179
			c64.058-23.819,115.008-71.158,143.462-133.296C516.992,300.387,519.544,230.887,495.726,166.828z"/>
	</g>
</g>
<g>
	<g>
		<path d="M368.202,255.999c15.151-17.303,14.481-43.721-2.016-60.218c-10.24-10.24-24.304-14.38-37.639-12.424
			c1.956-13.334-2.183-27.398-12.424-37.639c-16.493-16.494-42.915-17.166-60.218-2.016c-8.042-7.051-18.242-10.901-29.035-10.901
			c-11.78,0-22.855,4.588-31.185,12.917c-8.332,8.331-12.92,19.406-12.92,31.186c0,2.178,0.159,4.331,0.468,6.448
			c-13.326-1.946-27.377,2.196-37.611,12.429c-16.495,16.497-17.166,42.916-2.014,60.219c-15.154,17.304-14.482,43.724,2.015,60.219
			c8.598,8.598,19.892,12.896,31.186,12.896c2.157,0,4.314-0.159,6.453-0.474c-1.956,13.334,2.183,27.398,12.423,37.639
			c8.598,8.598,19.892,12.898,31.186,12.898c10.374,0,20.749-3.627,29.034-10.882c17.301,15.153,43.721,14.481,60.22-2.016
			c10.24-10.24,14.38-24.304,12.424-37.638c2.138,0.313,4.294,0.472,6.452,0.472c11.292,0,22.59-4.3,31.187-12.898
			C382.683,299.722,383.355,273.302,368.202,255.999z M207.995,158.028c5.042-5.042,11.745-7.819,18.876-7.819
			c7.132,0,13.835,2.777,18.878,7.819l1.452,1.452v18.868c0,4.807,3.896,8.704,8.704,8.704s8.704-3.897,8.704-8.704v-18.866
			l1.453-1.453c10.408-10.409,27.344-10.407,37.751,0c10.409,10.408,10.409,27.344,0,37.753l-47.909,47.909l-47.91-47.91
			c-5.043-5.042-7.82-11.745-7.82-18.875C200.175,169.775,202.953,163.071,207.995,158.028z M303.815,353.972
			c-10.412,10.408-27.347,10.408-37.753,0l-1.453-1.453v-18.868c0-4.807-3.896-8.704-8.704-8.704s-8.704,3.897-8.704,8.704v18.868
			l-1.452,1.452c-5.043,5.042-11.746,7.819-18.878,7.819c-7.131,0-13.834-2.777-18.876-7.819c-10.409-10.408-10.409-27.344,0-37.753
			l15.031-15.031c3.399-3.399,3.399-8.91,0-12.309c-3.399-3.398-8.91-3.399-12.31,0l-15.031,15.031
			c-10.407,10.408-27.343,10.408-37.751,0s-10.409-27.344,0-37.753l1.452-1.453h18.866c4.808,0,8.704-3.897,8.704-8.704
			c0-4.807-3.896-8.704-8.704-8.704h-18.866l-1.452-1.453c-10.408-10.408-10.408-27.344-0.001-37.753
			c10.409-10.407,27.344-10.409,37.753,0l47.91,47.91l-7.927,7.927c-3.399,3.399-3.399,8.91,0,12.309
			c3.401,3.399,8.911,3.399,12.31,0l7.926-7.926l47.909,47.909C314.222,326.628,314.222,343.564,303.815,353.972z M353.877,303.91
			c-10.412,10.408-27.347,10.408-37.753,0L268.214,256l47.91-47.91c10.407-10.408,27.343-10.408,37.751,0
			c10.408,10.408,10.409,27.344,0.001,37.751l-1.454,1.453h-18.868c-4.808,0-8.704,3.897-8.704,8.704
			c0,4.807,3.896,8.704,8.704,8.704h18.868l1.453,1.453C364.285,276.566,364.285,293.502,353.877,303.91z"/>
	</g>
</g>
<g>
</g>
<g>
</g>
<g>
</g>
<g>
</g>
<g>
</g>
<g>
</g>
<g>
</g>
<g>
</g>
<g>
</g>
<g>
</g>
<g>
</g>
<g>
</g>
<g>
</g>
<g>
</g>
<g>
</g>
</svg>
